<svg width="34" height="33" viewBox="0 0 34 33" fill="none" xmlns="http://www.w3.org/2000/svg">
<path d="M24.4991 8.94295C20.6192 9.70548 17.6476 12.0267 14.8666 14.6199C14.0816 15.3516 13.6863 15.388 12.9266 14.6115C11.1296 12.778 9.04384 11.3988 6.36656 11.2221C3.80703 11.0539 1.34842 12.5313 0.403666 14.8105C-0.55791 17.129 0.238264 20.0277 2.34644 21.906C4.07055 23.4395 6.04136 23.5208 8.56445 22.1275C10.2521 21.1939 11.7323 19.9716 13.0668 18.5952C13.6695 17.9728 14.0087 17.9195 14.7152 18.5307C17.4485 20.8996 20.423 22.8984 23.9917 23.8151C29.7892 25.3038 34.0224 22.2957 34 16.7281C33.9775 11.2642 29.8481 7.89166 24.4991 8.94295ZM12.2117 17.1794C10.8605 18.4718 9.47837 19.7277 7.83276 20.6473C4.74338 22.3714 1.69885 20.5744 1.6568 17.0084C1.62876 14.5582 3.91636 12.5341 6.41142 12.8369C8.87563 13.1341 10.6614 14.6171 12.3463 16.2795C12.7584 16.686 12.5005 16.9047 12.2117 17.1794ZM30.905 20.9276C29.5677 22.5284 27.6979 22.7667 25.7859 22.4891C21.749 21.9032 18.5587 19.6549 15.5394 17.1037C15.2759 16.8795 15.0432 16.6608 15.4188 16.3188C18.326 13.6723 21.2528 11.0567 25.3738 10.482C25.6962 10.4372 26.0242 10.4456 26.3522 10.4288C28.9033 10.3755 30.8013 11.4408 31.7712 13.8293C32.7861 16.3216 32.7048 18.7746 30.905 20.9276Z" fill="#221F1F"/>
<path d="M14.3311 10.3642C15.5029 10.1652 16.5122 9.58489 17.4597 8.89244C19.01 7.75986 20.28 6.31889 21.6677 5.00689C22.9488 3.79581 23.2376 2.32681 22.5171 1.11853C21.8387 -0.0196631 20.5687 -0.300006 18.7717 0.313945C15.6235 1.38766 13.5013 3.72292 11.5473 6.246C11.2305 6.65531 11.138 7.17955 11.1604 7.61127C11.1492 9.4307 12.6014 10.6614 14.3311 10.3642ZM13.0023 7.02816C14.8722 4.76019 16.7841 2.52866 19.8062 1.72127C20.6388 1.4998 21.1799 1.64838 21.2752 2.67163C21.1518 2.92114 21.0733 3.27717 20.8575 3.48743C19.2175 5.06576 17.7317 6.82071 15.7721 8.0402C15.3039 8.33176 14.774 8.53921 14.2526 8.71863C13.7732 8.88403 13.3106 8.74666 13.0023 8.34017C12.6827 7.92246 12.7023 7.39261 13.0023 7.02816Z" fill="#232020"/>
<path d="M18.497 23.6244C17.6224 22.8506 16.6075 22.2563 15.4553 21.9787C14.1714 21.6704 13.0191 21.8946 12.251 23.0665C11.4829 24.2383 11.7071 25.4158 12.537 26.4334C13.8349 28.0229 15.231 29.5256 16.9496 30.689C18.0821 31.4543 19.3072 32.015 20.6557 32.2337C22.3293 32.5028 23.5853 31.373 23.56 29.6826C23.5713 28.8443 23.2629 28.1155 22.677 27.5464C21.3061 26.2147 19.9268 24.8915 18.497 23.6244ZM21.735 30.319C21.393 30.8236 20.8323 30.6273 20.3277 30.4759C17.3981 29.5985 15.4946 27.437 13.6779 25.1691C13.3976 24.8186 13.3696 24.3953 13.6107 23.9888C13.8321 23.616 14.3003 23.4309 14.7601 23.487C15.5647 23.6608 16.2263 23.9972 16.8402 24.4261C18.5699 25.6372 19.9548 27.224 21.4715 28.6677C21.9537 29.1303 22.1163 29.7583 21.735 30.319Z" fill="#22201F"/>
<path d="M25.5617 11.9088C24.7963 12.3349 25.2673 12.8956 25.5365 13.4535C26.4896 15.4439 26.8148 17.4512 25.4411 19.4108C25.1019 19.8958 24.9674 20.3836 25.4944 20.7508C26.0271 21.1209 26.4588 20.7733 26.8092 20.3471C27.6867 19.279 27.8885 17.9979 27.9867 16.6494C27.8829 15.2757 27.7343 13.8852 26.9802 12.6489C26.6578 12.1163 26.2794 11.5107 25.5617 11.9088Z" fill="#242120"/>
<path d="M21.8892 13.9639C21.4884 14.1657 21.2136 14.5133 21.4379 14.9899C21.9061 15.9767 21.8808 16.9523 21.5528 17.9728C21.4127 18.4073 21.5612 18.8222 22.0743 18.9484C22.5396 19.0633 22.9237 18.8951 23.0695 18.4241C23.2601 17.8074 23.3947 17.1738 23.5012 16.7505C23.4115 15.7805 23.3106 15.0404 22.9321 14.3816C22.7135 13.9947 22.3574 13.7284 21.8892 13.9639Z" fill="#292626"/>
</svg>
